<svg width="432" height="38" viewBox="0 0 432 38" fill="none" xmlns="http://www.w3.org/2000/svg">
<path d="M19.492 10.864C19.492 12.328 19.156 13.672 18.484 14.896C17.812 16.096 16.78 17.068 15.388 17.812C13.996 18.556 12.268 18.928 10.204 18.928H6.388V28H0.232V2.728H10.204C12.22 2.728 13.924 3.076 15.316 3.772C16.708 4.468 17.752 5.428 18.448 6.652C19.144 7.876 19.492 9.28 19.492 10.864ZM9.736 14.032C10.912 14.032 11.788 13.756 12.364 13.204C12.94 12.652 13.228 11.872 13.228 10.864C13.228 9.856 12.94 9.076 12.364 8.524C11.788 7.972 10.912 7.696 9.736 7.696H6.388V14.032H9.736ZM28.8528 1.36V28H22.6968V1.36H28.8528ZM32.09 17.92C32.09 15.856 32.474 14.044 33.242 12.484C34.034 10.924 35.102 9.724 36.446 8.884C37.79 8.044 39.29 7.624 40.946 7.624C42.362 7.624 43.598 7.912 44.654 8.488C45.734 9.064 46.562 9.82 47.138 10.756V7.912H53.294V28H47.138V25.156C46.538 26.092 45.698 26.848 44.618 27.424C43.562 28 42.326 28.288 40.91 28.288C39.278 28.288 37.79 27.868 36.446 27.028C35.102 26.164 34.034 24.952 33.242 23.392C32.474 21.808 32.09 19.984 32.09 17.92ZM47.138 17.956C47.138 16.42 46.706 15.208 45.842 14.32C45.002 13.432 43.97 12.988 42.746 12.988C41.522 12.988 40.478 13.432 39.614 14.32C38.774 15.184 38.354 16.384 38.354 17.92C38.354 19.456 38.774 20.68 39.614 21.592C40.478 22.48 41.522 22.924 42.746 22.924C43.97 22.924 45.002 22.48 45.842 21.592C46.706 20.704 47.138 19.492 47.138 17.956ZM69.9876 7.696C72.3396 7.696 74.2116 8.464 75.6036 10C77.0196 11.512 77.7276 13.6 77.7276 16.264V28H71.6076V17.092C71.6076 15.748 71.2596 14.704 70.5636 13.96C69.8676 13.216 68.9316 12.844 67.7556 12.844C66.5796 12.844 65.6436 13.216 64.9476 13.96C64.2516 14.704 63.9036 15.748 63.9036 17.092V28H57.7476V7.912H63.9036V10.576C64.5276 9.688 65.3676 8.992 66.4236 8.488C67.4796 7.96 68.6676 7.696 69.9876 7.696ZM100.83 22.78V28H97.6983C95.4663 28 93.7263 27.46 92.4783 26.38C91.2303 25.276 90.6063 23.488 90.6063 21.016V13.024H88.1583V7.912H90.6063V3.016H96.7623V7.912H100.794V13.024H96.7623V21.088C96.7623 21.688 96.9063 22.12 97.1943 22.384C97.4823 22.648 97.9623 22.78 98.6343 22.78H100.83ZM124.779 7.912L112.179 37.54H105.555L110.163 27.316L101.991 7.912H108.867L113.511 20.476L118.119 7.912H124.779ZM133.161 10.756C133.761 9.82 134.589 9.064 135.645 8.488C136.701 7.912 137.937 7.624 139.353 7.624C141.009 7.624 142.509 8.044 143.853 8.884C145.197 9.724 146.253 10.924 147.021 12.484C147.813 14.044 148.209 15.856 148.209 17.92C148.209 19.984 147.813 21.808 147.021 23.392C146.253 24.952 145.197 26.164 143.853 27.028C142.509 27.868 141.009 28.288 139.353 28.288C137.961 28.288 136.725 28 135.645 27.424C134.589 26.848 133.761 26.104 133.161 25.192V37.576H127.005V7.912H133.161V10.756ZM141.945 17.92C141.945 16.384 141.513 15.184 140.649 14.32C139.809 13.432 138.765 12.988 137.517 12.988C136.293 12.988 135.249 13.432 134.385 14.32C133.545 15.208 133.125 16.42 133.125 17.956C133.125 19.492 133.545 20.704 134.385 21.592C135.249 22.48 136.293 22.924 137.517 22.924C138.741 22.924 139.785 22.48 140.649 21.592C141.513 20.68 141.945 19.456 141.945 17.92ZM170.375 17.632C170.375 18.208 170.339 18.808 170.267 19.432H156.335C156.431 20.68 156.827 21.64 157.523 22.312C158.243 22.96 159.119 23.284 160.151 23.284C161.687 23.284 162.755 22.636 163.355 21.34H169.907C169.571 22.66 168.959 23.848 168.071 24.904C167.207 25.96 166.115 26.788 164.795 27.388C163.475 27.988 161.999 28.288 160.367 28.288C158.399 28.288 156.647 27.868 155.111 27.028C153.575 26.188 152.375 24.988 151.511 23.428C150.647 21.868 150.215 20.044 150.215 17.956C150.215 15.868 150.635 14.044 151.475 12.484C152.339 10.924 153.539 9.724 155.075 8.884C156.611 8.044 158.375 7.624 160.367 7.624C162.311 7.624 164.039 8.032 165.551 8.848C167.063 9.664 168.239 10.828 169.079 12.34C169.943 13.852 170.375 15.616 170.375 17.632ZM164.075 16.012C164.075 14.956 163.715 14.116 162.995 13.492C162.275 12.868 161.375 12.556 160.295 12.556C159.263 12.556 158.387 12.856 157.667 13.456C156.971 14.056 156.539 14.908 156.371 16.012H164.075ZM207.386 13.024V17.272H192.122V13.024H207.386ZM246.706 2.908V5.572H235.798V14.032H244.654V16.696H235.798V28H232.522V2.908H246.706ZM249.439 18.064C249.439 16.048 249.847 14.284 250.663 12.772C251.479 11.236 252.595 10.048 254.011 9.208C255.451 8.368 257.047 7.948 258.799 7.948C260.527 7.948 262.027 8.32 263.299 9.064C264.571 9.808 265.519 10.744 266.143 11.872V8.272H269.455V28H266.143V24.328C265.495 25.48 264.523 26.44 263.227 27.208C261.955 27.952 260.467 28.324 258.763 28.324C257.011 28.324 255.427 27.892 254.011 27.028C252.595 26.164 251.479 24.952 250.663 23.392C249.847 21.832 249.439 20.056 249.439 18.064ZM266.143 18.1C266.143 16.612 265.843 15.316 265.243 14.212C264.643 13.108 263.827 12.268 262.795 11.692C261.787 11.092 260.671 10.792 259.447 10.792C258.223 10.792 257.107 11.08 256.099 11.656C255.091 12.232 254.287 13.072 253.687 14.176C253.087 15.28 252.787 16.576 252.787 18.064C252.787 19.576 253.087 20.896 253.687 22.024C254.287 23.128 255.091 23.98 256.099 24.58C257.107 25.156 258.223 25.444 259.447 25.444C260.671 25.444 261.787 25.156 262.795 24.58C263.827 23.98 264.643 23.128 265.243 22.024C265.843 20.896 266.143 19.588 266.143 18.1ZM298.715 7.912C300.251 7.912 301.619 8.236 302.819 8.884C304.019 9.508 304.967 10.456 305.663 11.728C306.359 13 306.707 14.548 306.707 16.372V28H303.467V16.84C303.467 14.872 302.975 13.372 301.991 12.34C301.031 11.284 299.723 10.756 298.067 10.756C296.363 10.756 295.007 11.308 293.999 12.412C292.991 13.492 292.487 15.064 292.487 17.128V28H289.247V16.84C289.247 14.872 288.755 13.372 287.771 12.34C286.811 11.284 285.503 10.756 283.847 10.756C282.143 10.756 280.787 11.308 279.779 12.412C278.771 13.492 278.267 15.064 278.267 17.128V28H274.991V8.272H278.267V11.116C278.915 10.084 279.779 9.292 280.859 8.74C281.963 8.188 283.175 7.912 284.495 7.912C286.151 7.912 287.615 8.284 288.887 9.028C290.159 9.772 291.107 10.864 291.731 12.304C292.283 10.912 293.195 9.832 294.467 9.064C295.739 8.296 297.155 7.912 298.715 7.912ZM313.773 5.068C313.149 5.068 312.621 4.852 312.189 4.42C311.757 3.988 311.541 3.46 311.541 2.836C311.541 2.212 311.757 1.684 312.189 1.252C312.621 0.819999 313.149 0.603999 313.773 0.603999C314.373 0.603999 314.877 0.819999 315.285 1.252C315.717 1.684 315.933 2.212 315.933 2.836C315.933 3.46 315.717 3.988 315.285 4.42C314.877 4.852 314.373 5.068 313.773 5.068ZM315.357 8.272V28H312.081V8.272H315.357ZM324.216 1.36V28H320.94V1.36H324.216ZM346.791 8.272L334.911 37.288H331.527L335.415 27.784L327.459 8.272H331.095L337.287 24.256L343.407 8.272H346.791ZM376.458 10.252C376.458 12.34 375.738 14.08 374.298 15.472C372.882 16.84 370.71 17.524 367.782 17.524H362.958V28H359.682V2.908H367.782C370.614 2.908 372.762 3.592 374.226 4.96C375.714 6.328 376.458 8.092 376.458 10.252ZM367.782 14.824C369.606 14.824 370.95 14.428 371.814 13.636C372.678 12.844 373.11 11.716 373.11 10.252C373.11 7.156 371.334 5.608 367.782 5.608H362.958V14.824H367.782ZM383.806 1.36V28H380.53V1.36H383.806ZM388.165 18.064C388.165 16.048 388.573 14.284 389.389 12.772C390.205 11.236 391.321 10.048 392.737 9.208C394.177 8.368 395.773 7.948 397.525 7.948C399.253 7.948 400.753 8.32 402.025 9.064C403.297 9.808 404.245 10.744 404.869 11.872V8.272H408.181V28H404.869V24.328C404.221 25.48 403.249 26.44 401.953 27.208C400.681 27.952 399.193 28.324 397.489 28.324C395.737 28.324 394.153 27.892 392.737 27.028C391.321 26.164 390.205 24.952 389.389 23.392C388.573 21.832 388.165 20.056 388.165 18.064ZM404.869 18.1C404.869 16.612 404.569 15.316 403.969 14.212C403.369 13.108 402.553 12.268 401.521 11.692C400.513 11.092 399.397 10.792 398.173 10.792C396.949 10.792 395.833 11.08 394.825 11.656C393.817 12.232 393.013 13.072 392.413 14.176C391.813 15.28 391.513 16.576 391.513 18.064C391.513 19.576 391.813 20.896 392.413 22.024C393.013 23.128 393.817 23.98 394.825 24.58C395.833 25.156 396.949 25.444 398.173 25.444C399.397 25.444 400.513 25.156 401.521 24.58C402.553 23.98 403.369 23.128 403.969 22.024C404.569 20.896 404.869 19.588 404.869 18.1ZM423.329 7.912C425.729 7.912 427.673 8.644 429.161 10.108C430.649 11.548 431.393 13.636 431.393 16.372V28H428.153V16.84C428.153 14.872 427.661 13.372 426.677 12.34C425.693 11.284 424.349 10.756 422.645 10.756C420.917 10.756 419.537 11.296 418.505 12.376C417.497 13.456 416.993 15.028 416.993 17.092V28H413.717V8.272H416.993V11.08C417.641 10.072 418.517 9.292 419.621 8.74C420.749 8.188 421.985 7.912 423.329 7.912Z" fill="white"/>
</svg>
