<svg width="66" height="66" viewBox="0 0 66 66" fill="none" xmlns="http://www.w3.org/2000/svg">
<path d="M62.6626 0.66471C61.7303 -0.16077 60.3041 -0.0742697 59.4761 0.856456C59.4208 0.918565 53.8656 7.07838 47.2012 7.07838C37.2597 7.07838 34.5308 5.7138 30.7537 3.82525C28.7511 2.82383 25.0232 0.960121 21.2669 0.273313C14.6633 -0.933853 11.6405 2.08779 10.2664 4.83547C6.64041 12.0879 12.3975 19.6932 14.142 21.7441C7.12757 26.957 2.57422 35.3037 2.57422 44.6947C2.57422 52.5834 5.71872 59.9278 11.4282 65.3753C11.8483 65.7762 12.4066 65.9998 12.9872 65.9998H49.3215C49.9021 65.9998 50.4604 65.7762 50.8805 65.3753C56.5895 59.9281 59.7338 52.5834 59.7338 44.6947C59.7338 28.9359 46.9128 16.1148 31.1539 16.1148C26.3934 16.1148 21.902 17.2866 17.9498 19.354C16.4405 17.4828 12.031 11.4057 14.3062 6.85547C16.5057 2.4566 23.1717 5.08481 28.7332 7.86547C32.9011 9.94961 36.1931 11.5956 47.201 11.5956C55.9273 11.5956 62.5815 4.16447 62.8605 3.84783C63.6844 2.91349 63.5951 1.49064 62.6626 0.66471ZM24.7188 33.8312C25.7075 33.8312 26.6234 34.2223 27.6837 34.6754C28.7644 35.1372 29.9894 35.6605 31.1541 35.6605C32.3188 35.6605 33.5438 35.1372 34.6245 34.6754C35.6849 34.2223 36.6007 33.8312 37.5897 33.8312C38.1367 33.8312 40.8657 34.0283 40.8657 37.9193C40.8657 40.4235 39.8956 44.4827 38.5067 47.7902C37.2376 50.8126 35.7962 52.9035 34.1995 54.0483C34.0479 54.1569 33.8483 54.1714 33.6827 54.086C33.517 54.0009 33.4128 53.8301 33.4128 53.6436V45.3721C33.4128 44.1249 32.4017 43.1136 31.1543 43.1136C29.9072 43.1136 28.8959 44.1249 28.8959 45.3721V53.6434C28.8959 53.8299 28.792 54.0006 28.6262 54.086C28.4604 54.1714 28.2608 54.1565 28.1092 54.0478C26.5125 52.9032 25.0711 50.8123 23.802 47.79C22.4131 44.4822 21.443 40.423 21.443 37.919C21.4426 34.0283 24.1715 33.8312 24.7188 33.8312Z" fill="black"/>
</svg>
